{
  "accessors": [
    {
      "bufferView": 2,
      "componentType": 5126,
      "count": 4,
      "max": [
        -1.7723840475082397,
        -0.15719099342823029,
        0.14226099848747253
      ],
      "min": [
        -1.7723840475082397,
        -0.37454500794410706,
        -0.0047610001638531685
      ],
      "type": "VEC3"
    },
    {
      "bufferView": 2,
      "byteOffset": 48,
      "componentType": 5126,
      "count": 4,
      "max": [
        1.0,
        0.0,
        0.0
      ],
      "min": [
        1.0,
        0.0,
        0.0
      ],
      "type": "VEC3"
    },
    {
      "bufferView": 1,
      "componentType": 5126,
      "count": 4,
      "max": [
        0.7612630128860474,
        0.6065629720687866
      ],
      "min": [
        0.2881369888782501,
        0.286529004573822
      ],
      "type": "VEC2"
    },
    {
      "bufferView": 0,
      "componentType": 5125,
      "count": 6,
      "type": "SCALAR"
    },
    {
      "bufferView": 2,
      "byteOffset": 96,
      "componentType": 5126,
      "count": 4,
      "max": [
        -1.771111011505127,
        0.2938089966773987,
        0.14226099848747253
      ],
      "min": [
        -1.771111011505127,
        0.0764549970626831,
        -0.0047610001638531685
      ],
      "type": "VEC3"
    },
    {
      "bufferView": 2,
      "byteOffset": 144,
      "componentType": 5126,
      "count": 4,
      "max": [
        1.0,
        0.0,
        0.0
      ],
      "min": [
        1.0,
        0.0,
        0.0
      ],
      "type": "VEC3"
    },
    {
      "bufferView": 1,
      "byteOffset": 32,
      "componentType": 5126,
      "count": 4,
      "max": [
        1.0,
        1.0
      ],
      "min": [
        0.0,
        0.0
      ],
      "type": "VEC2"
    },
    {
      "bufferView": 0,
      "byteOffset": 24,
      "componentType": 5125,
      "count": 6,
      "type": "SCALAR"
    },
    {
      "bufferView": 2,
      "byteOffset": 192,
      "componentType": 5126,
      "count": 4,
      "max": [
        -1.772109031677246,
        -0.31959599256515503,
        0.12946400046348572
      ],
      "min": [
        -1.772109031677246,
        -0.34180599451065063,
        0.05661800131201744
      ],
      "type": "VEC3"
    },
    {
      "bufferView": 2,
      "byteOffset": 240,
      "componentType": 5126,
      "count": 4,
      "max": [
        1.0,
        0.0,
        0.0
      ],
      "min": [
        1.0,
        0.0,
        0.0
      ],
      "type": "VEC3"
    },
    {
      "bufferView": 1,
      "byteOffset": 64,
      "componentType": 5126,
      "count": 4,
      "max": [
        0.9952729940414429,
        0.25618699193000793
      ],
      "min": [
        0.02254600077867508,
        0.09325499832630157
      ],
      "type": "VEC2"
    },
    {
      "bufferView": 0,
      "byteOffset": 48,
      "componentType": 5125,
      "count": 6,
      "type": "SCALAR"
    },
    {
      "bufferView": 2,
      "byteOffset": 288,
      "componentType": 5126,
      "count": 4,
      "max": [
        -1.772109031677246,
        -0.20297199487686157,
        0.12965400516986847
      ],
      "min": [
        -1.772109031677246,
        -0.22520199418067932,
        0.05638999864459038
      ],
      "type": "VEC3"
    },
    {
      "bufferView": 2,
      "byteOffset": 336,
      "componentType": 5126,
      "count": 4,
      "max": [
        1.0,
        0.0,
        0.0
      ],
      "min": [
        1.0,
        0.0,
        0.0
      ],
      "type": "VEC3"
    },
    {
      "bufferView": 1,
      "byteOffset": 96,
      "componentType": 5126,
      "count": 4,
      "max": [
        0.9998250007629395,
        0.07445599883794785
      ],
      "min": [
        -0.008515000343322754,
        0.04757799953222275
      ],
      "type": "VEC2"
    },
    {
      "bufferView": 0,
      "byteOffset": 72,
      "componentType": 5125,
      "count": 6,
      "type": "SCALAR"
    },
    {
      "bufferView": 2,
      "byteOffset": 384,
      "componentType": 5126,
      "count": 27,
      "max": [
        -1.7719550132751465,
        -0.24306699633598328,
        0.12651599943637848
      ],
      "min": [
        -1.7719550132751465,
        -0.31027498841285706,
        0.06912299990653992
      ],
      "type": "VEC3"
    },
    {
      "bufferView": 2,
      "byteOffset": 708,
      "componentType": 5126,
      "count": 27,
      "max": [
        1.0,
        0.0,
        0.0
      ],
      "min": [
        1.0,
        0.0,
        0.0
      ],
      "type": "VEC3"
    },
    {
      "bufferView": 1,
      "byteOffset": 128,
      "componentType": 5126,
      "count": 27,
      "max": [
        0.6219609975814819,
        0.6180899739265442
      ],
      "min": [
        0.38449400663375854,
        0.4171310067176819
      ],
      "type": "VEC2"
    },
    {
      "bufferView": 0,
      "byteOffset": 96,
      "componentType": 5125,
      "count": 78,
      "type": "SCALAR"
    },
    {
      "bufferView": 2,
      "byteOffset": 1032,
      "componentType": 5126,
      "count": 2554,
      "max": [
        3.718533992767334,
        0.9493640065193176,
        1.312351942062378
      ],
      "min": [
        -3.3053019046783447,
        -0.9493640065193176,
        -0.710453987121582
      ],
      "type": "VEC3"
    },
    {
      "bufferView": 2,
      "byteOffset": 31680,
      "componentType": 5126,
      "count": 2554,
      "max": [
        1.0,
        1.0,
        0.9999896883964539
      ],
      "min": [
        -0.981239378452301,
        -1.0,
        -1.0
      ],
      "type": "VEC3"
    },
    {
      "bufferView": 1,
      "byteOffset": 344,
      "componentType": 5126,
      "count": 2554,
      "max": [
        0.9861999750137329,
        0.9863510131835938
      ],
      "min": [
        0.03754299879074097,
        0.05355700105428696
      ],
      "type": "VEC2"
    },
    {
      "bufferView": 0,
      "byteOffset": 408,
      "componentType": 5125,
      "count": 12282,
      "type": "SCALAR"
    },
    {
      "bufferView": 2,
      "byteOffset": 62328,
      "componentType": 5126,
      "count": 2646,
      "max": [
        3.6856749057769775,
        5.244739055633545,
        1.2021080255508423
      ],
      "min": [
        -3.42962908744812,
        -5.244739055633545,
        -1.1928859949111938
      ],
      "type": "VEC3"
    },
    {
      "bufferView": 2,
      "byteOffset": 94080,
      "componentType": 5126,
      "count": 2646,
      "max": [
        1.0,
        1.0,
        1.0
      ],
      "min": [
        -1.0,
        -1.0,
        -1.0
      ],
      "type": "VEC3"
    },
    {
      "bufferView": 1,
      "byteOffset": 20776,
      "componentType": 5126,
      "count": 2646,
      "max": [
        0.9945459961891174,
        0.9735680222511292
      ],
      "min": [
        0.011269000358879566,
        0.006548999808728695
      ],
      "type": "VEC2"
    },
    {
      "bufferView": 0,
      "byteOffset": 49536,
      "componentType": 5125,
      "count": 12552,
      "type": "SCALAR"
    },
    {
      "bufferView": 2,
      "byteOffset": 125832,
      "componentType": 5126,
      "count": 2406,
      "max": [
        -0.5837389826774597,
        1.1237399578094482,
        -0.8685320019721985
      ],
      "min": [
        -2.9914159774780273,
        -1.1237119436264038,
        -1.3200279474258423
      ],
      "type": "VEC3"
    },
    {
      "bufferView": 2,
      "byteOffset": 154704,
      "componentType": 5126,
      "count": 2406,
      "max": [
        0.9994695782661438,
        1.0,
        0.999454140663147
      ],
      "min": [
        -0.9994697570800781,
        -1.0,
        -0.9994538426399231
      ],
      "type": "VEC3"
    },
    {
      "bufferView": 1,
      "byteOffset": 41944,
      "componentType": 5126,
      "count": 2406,
      "max": [
        0.620212972164154,
        0.11655200272798538
      ],
      "min": [
        0.504813015460968,
        0.0013139999937266111
      ],
      "type": "VEC2"
    },
    {
      "bufferView": 0,
      "byteOffset": 99744,
      "componentType": 5125,
      "count": 14400,
      "type": "SCALAR"
    },
    {
      "bufferView": 2,
      "byteOffset": 183576,
      "componentType": 5126,
      "count": 1228,
      "max": [
        -0.7861239910125732,
        2.378983974456787,
        0.4115050137042999
      ],
      "min": [
        -3.760145902633667,
        -2.3789830207824707,
        -0.960910975933075
      ],
      "type": "VEC3"
    },
    {
      "bufferView": 2,
      "byteOffset": 198312,
      "componentType": 5126,
      "count": 1228,
      "max": [
        0.9987581372261047,
        0.9999983310699463,
        0.9988600015640259
      ],
      "min": [
        -1.0,
        -0.9999995827674866,
        -0.999851644039154
      ],
      "type": "VEC3"
    },
    {
      "bufferView": 1,
      "byteOffset": 61192,
      "componentType": 5126,
      "count": 1228,
      "max": [
        0.9819340109825134,
        0.7633240222930908
      ],
      "min": [
        0.4136349856853485,
        0.1959410011768341
      ],
      "type": "VEC2"
    },
    {
      "bufferView": 0,
      "byteOffset": 157344,
      "componentType": 5125,
      "count": 6432,
      "type": "SCALAR"
    },
    {
      "bufferView": 2,
      "byteOffset": 213048,
      "componentType": 5126,
      "count": 2876,
      "max": [
        -0.007420999929308891,
        0.4467040002346039,
        0.39709699153900146
      ],
      "min": [
        -1.5459749698638916,
        -0.4467040002346039,
        -0.4837909936904907
      ],
      "type": "VEC3"
    },
    {
      "bufferView": 2,
      "byteOffset": 247560,
      "componentType": 5126,
      "count": 2876,
      "max": [
        0.9999405741691589,
        0.998757004737854,
        1.0
      ],
      "min": [
        -1.0,
        -0.9983806610107422,
        -1.0
      ],
      "type": "VEC3"
    },
    {
      "bufferView": 1,
      "byteOffset": 71016,
      "componentType": 5126,
      "count": 2876,
      "max": [
        0.5655679702758789,
        0.9807050228118896
      ],
      "min": [
        0.01584400050342083,
        0.016085999086499214
      ],
      "type": "VEC2"
    },
    {
      "bufferView": 0,
      "byteOffset": 183072,
      "componentType": 5125,
      "count": 13320,
      "type": "SCALAR"
    },
    {
      "bufferView": 2,
      "byteOffset": 282072,
      "componentType": 5126,
      "count": 2352,
      "max": [
        -0.12172800302505493,
        0.4519850015640259,
        -0.34398698806762695
      ],
      "min": [
        -1.5007179975509644,
        -0.45170098543167114,
        -0.6699849963188171
      ],
      "type": "VEC3"
    },
    {
      "bufferView": 2,
      "byteOffset": 310296,
      "componentType": 5126,
      "count": 2352,
      "max": [
        0.9985976219177246,
        1.0,
        0.9962072968482971
      ],
      "min": [
        -0.9987533092498779,
        -1.0,
        -0.9983727931976318
      ],
      "type": "VEC3"
    },
    {
      "bufferView": 1,
      "byteOffset": 94024,
      "componentType": 5126,
      "count": 2352,
      "max": [
        0.9389989972114563,
        0.7334439754486084
      ],
      "min": [
        0.65038001537323,
        0.21968099474906921
      ],
      "type": "VEC2"
    },
    {
      "bufferView": 0,
      "byteOffset": 236352,
      "componentType": 5125,
      "count": 13200,
      "type": "SCALAR"
    },
    {
      "bufferView": 2,
      "byteOffset": 338520,
      "componentType": 5126,
      "count": 1907,
      "max": [
        -1.761978030204773,
        -0.01606000028550625,
        0.13165399432182312
      ],
      "min": [
        -1.7803930044174194,
        -0.10344500094652176,
        0.04309000074863434
      ],
      "type": "VEC3"
    },
    {
      "bufferView": 2,
      "byteOffset": 361404,
      "componentType": 5126,
      "count": 1907,
      "max": [
        1.0,
        1.0,
        1.0
      ],
      "min": [
        -0.503730833530426,
        -0.9996448755264282,
        -1.0
      ],
      "type": "VEC3"
    },
    {
      "bufferView": 1,
      "byteOffset": 112840,
      "componentType": 5126,
      "count": 1907,
      "max": [
        0.9873409867286682,
        1.0
      ],
      "min": [
        0.0,
        0.0
      ],
      "type": "VEC2"
    },
    {
      "bufferView": 0,
      "byteOffset": 289152,
      "componentType": 5125,
      "count": 8274,
      "type": "SCALAR"
    },
    {
      "bufferView": 2,
      "byteOffset": 384288,
      "componentType": 5126,
      "count": 1091,
      "max": [
        -1.7674059867858887,
        -0.016541000455617905,
        0.03762799873948097
      ],
      "min": [
        -1.7779920101165771,
        -0.10347700119018555,
        -0.049880001693964005
      ],
      "type": "VEC3"
    },
    {
      "bufferView": 2,
      "byteOffset": 397380,
      "componentType": 5126,
      "count": 1091,
      "max": [
        1.0,
        1.0,
        0.9999565482139587
      ],
      "min": [
        0.0,
        -1.0,
        -0.9994603395462036
      ],
      "type": "VEC3"
    },
    {
      "bufferView": 1,
      "byteOffset": 128096,
      "componentType": 5126,
      "count": 1091,
      "max": [
        1.0076340436935425,
        1.0051770210266113
      ],
      "min": [
        0.0026499999221414328,
        -0.0034340000711381435
      ],
      "type": "VEC2"
    },
    {
      "bufferView": 0,
      "byteOffset": 322248,
      "componentType": 5125,
      "count": 5586,
      "type": "SCALAR"
    },
    {
      "bufferView": 2,
      "byteOffset": 410472,
      "componentType": 5126,
      "count": 1285,
      "max": [
        -1.7731289863586426,
        -0.01653200015425682,
        0.2235880047082901
      ],
      "min": [
        -1.7793749570846558,
        -0.10346800088882446,
        0.13665199279785156
      ],
      "type": "VEC3"
    },
    {
      "bufferView": 2,
      "byteOffset": 425892,
      "componentType": 5126,
      "count": 1285,
      "max": [
        1.0,
        1.0,
        0.9995219707489014
      ],
      "min": [
        0.0,
        -1.0,
        -0.9990397095680237
      ],
      "type": "VEC3"
    },
    {
      "bufferView": 1,
      "byteOffset": 136824,
      "componentType": 5126,
      "count": 1285,
      "max": [
        0.9741230010986328,
        0.9870910048484802
      ],
      "min": [
        0.01601799950003624,
        0.026475999504327774
      ],
      "type": "VEC2"
    },
    {
      "bufferView": 0,
      "byteOffset": 344592,
      "componentType": 5125,
      "count": 6900,
      "type": "SCALAR"
    },
    {
      "bufferView": 2,
      "byteOffset": 441312,
      "componentType": 5126,
      "count": 2061,
      "max": [
        0.6996989846229553,
        0.6071979999542236,
        0.5570600032806396
      ],
      "min": [
        -2.3248329162597656,
        -0.6071979999542236,
        -0.5869150161743164
      ],
      "type": "VEC3"
    },
    {
      "bufferView": 2,
      "byteOffset": 466044,
      "componentType": 5126,
      "count": 2061,
      "max": [
        1.0,
        0.9999058842658997,
        1.0
      ],
      "min": [
        -1.0,
        -0.9999058842658997,
        -0.9998419284820557
      ],
      "type": "VEC3"
    },
    {
      "bufferView": 1,
      "byteOffset": 147104,
      "componentType": 5126,
      "count": 2061,
      "max": [
        0.9944620132446289,
        0.9881110191345215
      ],
      "min": [
        0.011327000334858894,
        0.06536799669265747
      ],
      "type": "VEC2"
    },
    {
      "bufferView": 0,
      "byteOffset": 372192,
      "componentType": 5125,
      "count": 7842,
      "type": "SCALAR"
    },
    {
      "bufferView": 2,
      "byteOffset": 490776,
      "componentType": 5126,
      "count": 1408,
      "max": [
        -1.7551130056381226,
        0.3346230089664459,
        0.16357600688934326
      ],
      "min": [
        -1.7767030000686646,
        0.035280998796224594,
        -0.03172200173139572
      ],
      "type": "VEC3"
    },
    {
      "bufferView": 2,
      "byteOffset": 507672,
      "componentType": 5126,
      "count": 1408,
      "max": [
        1.0,
        0.9994690418243408,
        1.0
      ],
      "min": [
        -0.0001990198070416227,
        -0.9994622468948364,
        -1.0
      ],
      "type": "VEC3"
    },
    {
      "bufferView": 1,
      "byteOffset": 163592,
      "componentType": 5126,
      "count": 1408,
      "max": [
        1.0004249811172485,
        1.0
      ],
      "min": [
        0.00024500000290572643,
        -0.006771000102162361
      ],
      "type": "VEC2"
    },
    {
      "bufferView": 0,
      "byteOffset": 403560,
      "componentType": 5125,
      "count": 6318,
      "type": "SCALAR"
    },
    {
      "bufferView": 2,
      "byteOffset": 524568,
      "componentType": 5126,
      "count": 879,
      "max": [
        -1.7165160179138184,
        0.5544059872627258,
        0.24592499434947968
      ],
      "min": [
        -2.3759520053863525,
        -0.5544059872627258,
        -0.18471099436283112
      ],
      "type": "VEC3"
    },
    {
      "bufferView": 2,
      "byteOffset": 535116,
      "componentType": 5126,
      "count": 879,
      "max": [
        1.0,
        0.9999989867210388,
        0.9999976754188538
      ],
      "min": [
        -0.3375805914402008,
        -0.999998927116394,
        -0.9999984502792358
      ],
      "type": "VEC3"
    },
    {
      "bufferView": 1,
      "byteOffset": 174856,
      "componentType": 5126,
      "count": 879,
      "max": [
        0.9838929772377014,
        0.9794710278511047
      ],
      "min": [
        0.01641800068318844,
        0.050287000834941864
      ],
      "type": "VEC2"
    },
    {
      "bufferView": 0,
      "byteOffset": 428832,
      "componentType": 5125,
      "count": 4314,
      "type": "SCALAR"
    },
    {
      "bufferView": 2,
      "byteOffset": 545664,
      "componentType": 5126,
      "count": 3595,
      "max": [
        -1.7551130056381226,
        -0.11637700349092484,
        0.16357499361038208
      ],
      "min": [
        -1.7767030000686646,
        -0.41571900248527527,
        -0.03172200173139572
      ],
      "type": "VEC3"
    },
    {
      "bufferView": 2,
      "byteOffset": 588804,
      "componentType": 5126,
      "count": 3595,
      "max": [
        1.0,
        0.9994689226150513,
        1.0
      ],
      "min": [
        -0.0001989277225220576,
        -0.999462366104126,
        -1.0
      ],
      "type": "VEC3"
    },
    {
      "bufferView": 1,
      "byteOffset": 181888,
      "componentType": 5126,
      "count": 3595,
      "max": [
        1.0004249811172485,
        1.0242209434509277
      ],
      "min": [
        0.00024500000290572643,
        0.0015849999617785215
      ],
      "type": "VEC2"
    },
    {
      "bufferView": 0,
      "byteOffset": 446088,
      "componentType": 5125,
      "count": 11991,
      "type": "SCALAR"
    },
    {
      "bufferView": 2,
      "byteOffset": 631944,
      "componentType": 5126,
      "count": 1017,
      "max": [
        -1.7384929656982422,
        0.12009900063276291,
        -0.1106719970703125
      ],
      "min": [
        -1.7642029523849487,
        -0.41109898686408997,
        -0.15829600393772125
      ],
      "type": "VEC3"
    },
    {
      "bufferView": 2,
      "byteOffset": 644148,
      "componentType": 5126,
      "count": 1017,
      "max": [
        0.996013879776001,
        1.0,
        0.9955238699913025
      ],
      "min": [
        -0.42246195673942566,
        -1.0,
        -0.9968953132629395
      ],
      "type": "VEC3"
    },
    {
      "bufferView": 1,
      "byteOffset": 210648,
      "componentType": 5126,
      "count": 1017,
      "max": [
        0.956745982170105,
        0.98928302526474
      ],
      "min": [
        0.0006500000017695129,
        0.36227700114250183
      ],
      "type": "VEC2"
    },
    {
      "bufferView": 0,
      "byteOffset": 494052,
      "componentType": 5125,
      "count": 5184,
      "type": "SCALAR"
    },
    {
      "bufferView": 2,
      "byteOffset": 656352,
      "componentType": 5126,
      "count": 99,
      "max": [
        -1.7709439992904663,
        -0.018290000036358833,
        0.22163599729537964
      ],
      "min": [
        -1.7746620178222656,
        -0.10172799974679947,
        -0.04770699888467789
      ],
      "type": "VEC3"
    },
    {
      "bufferView": 2,
      "byteOffset": 657540,
      "componentType": 5126,
      "count": 99,
      "max": [
        1.0,
        0.0,
        0.0
      ],
      "min": [
        1.0,
        0.0,
        0.0
      ],
      "type": "VEC3"
    },
    {
      "bufferView": 1,
      "byteOffset": 218784,
      "componentType": 5126,
      "count": 99,
      "max": [
        1.0,
        1.0
      ],
      "min": [
        0.0,
        0.0
      ],
      "type": "VEC2"
    },
    {
      "bufferView": 0,
      "byteOffset": 514788,
      "componentType": 5125,
      "count": 288,
      "type": "SCALAR"
    },
    {
      "bufferView": 2,
      "byteOffset": 658728,
      "componentType": 5126,
      "count": 351,
      "max": [
        0.6755369901657104,
        0.6027629971504211,
        0.5115579962730408
      ],
      "min": [
        -2.3095450401306152,
        -0.6027629971504211,
        -0.12983499467372894
      ],
      "type": "VEC3"
    },
    {
      "bufferView": 2,
      "byteOffset": 662940,
      "componentType": 5126,
      "count": 351,
      "max": [
        0.3228808343410492,
        0.9994479417800903,
        0.9743070602416992
      ],
      "min": [
        -0.49783509969711304,
        -0.9994480013847351,
        -0.052520763128995895
      ],
      "type": "VEC3"
    },
    {
      "bufferView": 1,
      "byteOffset": 219576,
      "componentType": 5126,
      "count": 351,
      "max": [
        1.0,
        1.0
      ],
      "min": [
        0.0,
        0.0
      ],
      "type": "VEC2"
    },
    {
      "bufferView": 0,
      "byteOffset": 515940,
      "componentType": 5125,
      "count": 1218,
      "type": "SCALAR"
    }
  ],
  "asset": {
    "extras": {
      "author": "helijah (https://sketchfab.com/helijah)",
      "license": "CC-BY-4.0 (http://creativecommons.org/licenses/by/4.0/)",
      "source": "https://sketchfab.com/3d-models/tecnam-p2010-1284afa5a5554e19a91b9d5545ca66a8",
      "title": "Tecnam P2010"
    },
    "generator": "Sketchfab-12.64.0",
    "version": "2.0"
  },
  "bufferViews": [
    {
      "buffer": 0,
      "byteLength": 520812,
      "name": "floatBufferViews",
      "target": 34963
    },
    {
      "buffer": 0,
      "byteLength": 222384,
      "byteOffset": 520812,
      "byteStride": 8,
      "name": "floatBufferViews",
      "target": 34962
    },
    {
      "buffer": 0,
      "byteLength": 667152,
      "byteOffset": 743196,
      "byteStride": 12,
      "name": "floatBufferViews",
      "target": 34962
    }
  ],
  "buffers": [
    {
      "byteLength": 1410348,
      "uri": "scene.bin"
    }
  ],
  "images": [
    {
      "uri": "textures/DefaultWhite_baseColor.png"
    },
    {
      "uri": "textures/DefaultWhite_Seat.png_baseColor.png"
    },
    {
      "uri": "textures/DefaultWhite_ai.png_baseColor.png"
    },
    {
      "uri": "textures/DefaultWhite_alt.png_baseColor.png"
    },
    {
      "uri": "textures/DefaultWhite_asi.png_baseColor.png"
    },
    {
      "uri": "textures/DefaultWhite_attitude_indicator.png_baseColor.png"
    },
    {
      "uri": "textures/DefaultWhite_interior.png_baseColor.png"
    },
    {
      "uri": "textures/DefaultWhite_map.png_baseColor.png"
    },
    {
      "uri": "textures/DefaultWhite_mfd.png_baseColor.png"
    },
    {
      "uri": "textures/DefaultWhite_panel.png.001_baseColor.png"
    },
    {
      "uri": "textures/DefaultWhite_pfd.png_baseColor.png"
    },
    {
      "uri": "textures/DefaultWhite_switch.png_baseColor.png"
    },
    {
      "uri": "textures/None_baseColor.png"
    },
    {
      "uri": "textures/None_alt.tape.png_baseColor.png"
    },
    {
      "uri": "textures/None_pitchscale.png_baseColor.png"
    }
  ],
  "materials": [
    {
      "doubleSided": true,
      "name": "DefaultWhite",
      "pbrMetallicRoughness": {
        "baseColorTexture": {
          "index": 0
        },
        "metallicFactor": 0.0,
        "roughnessFactor": 0.6
      }
    },
    {
      "doubleSided": true,
      "name": "DefaultWhite_Seat.png",
      "pbrMetallicRoughness": {
        "baseColorTexture": {
          "index": 1
        },
        "metallicFactor": 0.0,
        "roughnessFactor": 0.6
      }
    },
    {
      "doubleSided": true,
      "name": "DefaultWhite_ai.png",
      "pbrMetallicRoughness": {
        "baseColorTexture": {
          "index": 2
        },
        "metallicFactor": 0.0,
        "roughnessFactor": 0.6
      }
    },
    {
      "doubleSided": true,
      "name": "DefaultWhite_alt.png",
      "pbrMetallicRoughness": {
        "baseColorTexture": {
          "index": 3
        },
        "metallicFactor": 0.0,
        "roughnessFactor": 0.6
      }
    },
    {
      "doubleSided": true,
      "name": "DefaultWhite_asi.png",
      "pbrMetallicRoughness": {
        "baseColorTexture": {
          "index": 4
        },
        "metallicFactor": 0.0,
        "roughnessFactor": 0.6
      }
    },
    {
      "doubleSided": true,
      "name": "DefaultWhite_attitude_indicator.png",
      "pbrMetallicRoughness": {
        "baseColorTexture": {
          "index": 5
        },
        "metallicFactor": 0.0,
        "roughnessFactor": 0.6
      }
    },
    {
      "doubleSided": true,
      "name": "DefaultWhite_interior.png",
      "pbrMetallicRoughness": {
        "baseColorTexture": {
          "index": 6
        },
        "metallicFactor": 0.0,
        "roughnessFactor": 0.6
      }
    },
    {
      "doubleSided": true,
      "name": "DefaultWhite_map.png",
      "pbrMetallicRoughness": {
        "baseColorTexture": {
          "index": 7
        },
        "metallicFactor": 0.0,
        "roughnessFactor": 0.6
      }
    },
    {
      "doubleSided": true,
      "name": "DefaultWhite_mfd.png",
      "pbrMetallicRoughness": {
        "baseColorTexture": {
          "index": 8
        },
        "metallicFactor": 0.0,
        "roughnessFactor": 0.6
      }
    },
    {
      "doubleSided": true,
      "name": "DefaultWhite_panel.png.001",
      "pbrMetallicRoughness": {
        "baseColorTexture": {
          "index": 9
        },
        "metallicFactor": 0.0,
        "roughnessFactor": 0.6
      }
    },
    {
      "doubleSided": true,
      "name": "DefaultWhite_pfd.png",
      "pbrMetallicRoughness": {
        "baseColorTexture": {
          "index": 10
        },
        "metallicFactor": 0.0,
        "roughnessFactor": 0.6
      }
    },
    {
      "doubleSided": true,
      "name": "DefaultWhite_switch.png",
      "pbrMetallicRoughness": {
        "baseColorTexture": {
          "index": 11
        },
        "metallicFactor": 0.0,
        "roughnessFactor": 0.6
      }
    },
    {
      "doubleSided": true,
      "name": "None",
      "pbrMetallicRoughness": {
        "baseColorTexture": {
          "index": 12
        },
        "metallicFactor": 0.0,
        "roughnessFactor": 0.6
      }
    },
    {
      "doubleSided": true,
      "name": "None_alt.tape.png",
      "pbrMetallicRoughness": {
        "baseColorTexture": {
          "index": 13
        },
        "metallicFactor": 0.0,
        "roughnessFactor": 0.6
      }
    },
    {
      "doubleSided": true,
      "name": "None_pitchscale.png",
      "pbrMetallicRoughness": {
        "baseColorTexture": {
          "index": 14
        },
        "metallicFactor": 0.0,
        "roughnessFactor": 0.6
      }
    },
    {
      "alphaMode": "BLEND",
      "doubleSided": true,
      "name": "transparent",
      "pbrMetallicRoughness": {
        "baseColorFactor": [
          0.8,
          0.8,
          0.8,
          0.15
        ],
        "metallicFactor": 0.0,
        "roughnessFactor": 0.6
      }
    },
    {
      "alphaMode": "BLEND",
      "doubleSided": true,
      "name": "transparentExt",
      "pbrMetallicRoughness": {
        "baseColorFactor": [
          0.8,
          0.8,
          0.8,
          0.5
        ],
        "metallicFactor": 0.0,
        "roughnessFactor": 0.6
      }
    }
  ],
  "meshes": [
    {
      "name": "Object_0",
      "primitives": [
        {
          "attributes": {
            "NORMAL": 1,
            "POSITION": 0,
            "TEXCOORD_0": 2
          },
          "indices": 3,
          "material": 5,
          "mode": 4
        }
      ]
    },
    {
      "name": "Object_1",
      "primitives": [
        {
          "attributes": {
            "NORMAL": 5,
            "POSITION": 4,
            "TEXCOORD_0": 6
          },
          "indices": 7,
          "material": 7,
          "mode": 4
        }
      ]
    },
    {
      "name": "Object_2",
      "primitives": [
        {
          "attributes": {
            "NORMAL": 9,
            "POSITION": 8,
            "TEXCOORD_0": 10
          },
          "indices": 11,
          "material": 12,
          "mode": 4
        }
      ]
    },
    {
      "name": "Object_3",
      "primitives": [
        {
          "attributes": {
            "NORMAL": 13,
            "POSITION": 12,
            "TEXCOORD_0": 14
          },
          "indices": 15,
          "material": 13,
          "mode": 4
        }
      ]
    },
    {
      "name": "Object_4",
      "primitives": [
        {
          "attributes": {
            "NORMAL": 17,
            "POSITION": 16,
            "TEXCOORD_0": 18
          },
          "indices": 19,
          "material": 14,
          "mode": 4
        }
      ]
    },
    {
      "name": "Object_5",
      "primitives": [
        {
          "attributes": {
            "NORMAL": 21,
            "POSITION": 20,
            "TEXCOORD_0": 22
          },
          "indices": 23,
          "material": 0,
          "mode": 4
        }
      ]
    },
    {
      "name": "Object_6",
      "primitives": [
        {
          "attributes": {
            "NORMAL": 25,
            "POSITION": 24,
            "TEXCOORD_0": 26
          },
          "indices": 27,
          "material": 0,
          "mode": 4
        }
      ]
    },
    {
      "name": "Object_7",
      "primitives": [
        {
          "attributes": {
            "NORMAL": 29,
            "POSITION": 28,
            "TEXCOORD_0": 30
          },
          "indices": 31,
          "material": 0,
          "mode": 4
        }
      ]
    },
    {
      "name": "Object_8",
      "primitives": [
        {
          "attributes": {
            "NORMAL": 33,
            "POSITION": 32,
            "TEXCOORD_0": 34
          },
          "indices": 35,
          "material": 0,
          "mode": 4
        }
      ]
    },
    {
      "name": "Object_9",
      "primitives": [
        {
          "attributes": {
            "NORMAL": 37,
            "POSITION": 36,
            "TEXCOORD_0": 38
          },
          "indices": 39,
          "material": 1,
          "mode": 4
        }
      ]
    },
    {
      "name": "Object_10",
      "primitives": [
        {
          "attributes": {
            "NORMAL": 41,
            "POSITION": 40,
            "TEXCOORD_0": 42
          },
          "indices": 43,
          "material": 1,
          "mode": 4
        }
      ]
    },
    {
      "name": "Object_11",
      "primitives": [
        {
          "attributes": {
            "NORMAL": 45,
            "POSITION": 44,
            "TEXCOORD_0": 46
          },
          "indices": 47,
          "material": 2,
          "mode": 4
        }
      ]
    },
    {
      "name": "Object_12",
      "primitives": [
        {
          "attributes": {
            "NORMAL": 49,
            "POSITION": 48,
            "TEXCOORD_0": 50
          },
          "indices": 51,
          "material": 3,
          "mode": 4
        }
      ]
    },
    {
      "name": "Object_13",
      "primitives": [
        {
          "attributes": {
            "NORMAL": 53,
            "POSITION": 52,
            "TEXCOORD_0": 54
          },
          "indices": 55,
          "material": 4,
          "mode": 4
        }
      ]
    },
    {
      "name": "Object_14",
      "primitives": [
        {
          "attributes": {
            "NORMAL": 57,
            "POSITION": 56,
            "TEXCOORD_0": 58
          },
          "indices": 59,
          "material": 6,
          "mode": 4
        }
      ]
    },
    {
      "name": "Object_15",
      "primitives": [
        {
          "attributes": {
            "NORMAL": 61,
            "POSITION": 60,
            "TEXCOORD_0": 62
          },
          "indices": 63,
          "material": 8,
          "mode": 4
        }
      ]
    },
    {
      "name": "Object_16",
      "primitives": [
        {
          "attributes": {
            "NORMAL": 65,
            "POSITION": 64,
            "TEXCOORD_0": 66
          },
          "indices": 67,
          "material": 9,
          "mode": 4
        }
      ]
    },
    {
      "name": "Object_17",
      "primitives": [
        {
          "attributes": {
            "NORMAL": 69,
            "POSITION": 68,
            "TEXCOORD_0": 70
          },
          "indices": 71,
          "material": 10,
          "mode": 4
        }
      ]
    },
    {
      "name": "Object_18",
      "primitives": [
        {
          "attributes": {
            "NORMAL": 73,
            "POSITION": 72,
            "TEXCOORD_0": 74
          },
          "indices": 75,
          "material": 11,
          "mode": 4
        }
      ]
    },
    {
      "name": "Object_19",
      "primitives": [
        {
          "attributes": {
            "NORMAL": 77,
            "POSITION": 76,
            "TEXCOORD_0": 78
          },
          "indices": 79,
          "material": 15,
          "mode": 4
        }
      ]
    },
    {
      "name": "Object_20",
      "primitives": [
        {
          "attributes": {
            "NORMAL": 81,
            "POSITION": 80,
            "TEXCOORD_0": 82
          },
          "indices": 83,
          "material": 16,
          "mode": 4
        }
      ]
    }
  ],
  "nodes": [
    {
      "children": [
        1
      ],
      "matrix": [
        1.0,
        0.0,
        0.0,
        0.0,
        0.0,
        2.220446049250313e-16,
        -1.0,
        0.0,
        0.0,
        1.0,
        2.220446049250313e-16,
        0.0,
        0.0,
        0.0,
        0.0,
        1.0
      ],
      "name": "Sketchfab_model"
    },
    {
      "children": [
        2,
        3,
        4,
        5,
        6,
        7,
        8,
        9,
        10,
        11,
        12,
        13,
        14,
        15,
        16,
        17,
        18,
        19,
        20,
        21,
        22
      ],
      "name": "p2010.obj.cleaner"
    },
    {
      "mesh": 0,
      "name": "Object_2"
    },
    {
      "mesh": 1,
      "name": "Object_3"
    },
    {
      "mesh": 2,
      "name": "Object_4"
    },
    {
      "mesh": 3,
      "name": "Object_5"
    },
    {
      "mesh": 4,
      "name": "Object_6"
    },
    {
      "mesh": 5,
      "name": "Object_7"
    },
    {
      "mesh": 6,
      "name": "Object_8"
    },
    {
      "mesh": 7,
      "name": "Object_9"
    },
    {
      "mesh": 8,
      "name": "Object_10"
    },
    {
      "mesh": 9,
      "name": "Object_11"
    },
    {
      "mesh": 10,
      "name": "Object_12"
    },
    {
      "mesh": 11,
      "name": "Object_13"
    },
    {
      "mesh": 12,
      "name": "Object_14"
    },
    {
      "mesh": 13,
      "name": "Object_15"
    },
    {
      "mesh": 14,
      "name": "Object_16"
    },
    {
      "mesh": 15,
      "name": "Object_17"
    },
    {
      "mesh": 16,
      "name": "Object_18"
    },
    {
      "mesh": 17,
      "name": "Object_19"
    },
    {
      "mesh": 18,
      "name": "Object_20"
    },
    {
      "mesh": 19,
      "name": "Object_21"
    },
    {
      "mesh": 20,
      "name": "Object_22"
    }
  ],
  "samplers": [
    {
      "magFilter": 9729,
      "minFilter": 9987,
      "wrapS": 10497,
      "wrapT": 10497
    }
  ],
  "scene": 0,
  "scenes": [
    {
      "name": "Sketchfab_Scene",
      "nodes": [
        0
      ]
    }
  ],
  "textures": [
    {
      "sampler": 0,
      "source": 0
    },
    {
      "sampler": 0,
      "source": 1
    },
    {
      "sampler": 0,
      "source": 2
    },
    {
      "sampler": 0,
      "source": 3
    },
    {
      "sampler": 0,
      "source": 4
    },
    {
      "sampler": 0,
      "source": 5
    },
    {
      "sampler": 0,
      "source": 6
    },
    {
      "sampler": 0,
      "source": 7
    },
    {
      "sampler": 0,
      "source": 8
    },
    {
      "sampler": 0,
      "source": 9
    },
    {
      "sampler": 0,
      "source": 10
    },
    {
      "sampler": 0,
      "source": 11
    },
    {
      "sampler": 0,
      "source": 12
    },
    {
      "sampler": 0,
      "source": 13
    },
    {
      "sampler": 0,
      "source": 14
    }
  ]
}
