{
  "accessors": [
    {
      "bufferView": 2,
      "componentType": 5126,
      "count": 53247,
      "max": [
        10.13802719116211,
        12.12380313873291,
        7.63247013092041
      ],
      "min": [
        9.522761344909668,
        8.84259033203125,
        4.334222316741943
      ],
      "type": "VEC3"
    },
    {
      "bufferView": 2,
      "byteOffset": 638964,
      "componentType": 5126,
      "count": 53247,
      "max": [
        0.999997615814209,
        0.9999918937683105,
        0.9998836517333984
      ],
      "min": [
        -0.999997615814209,
        -0.9999904632568359,
        -0.9998836517333984
      ],
      "type": "VEC3"
    },
    {
      "bufferView": 1,
      "componentType": 5126,
      "count": 53247,
      "max": [
        0.9883554577827454,
        0.4016669988632202
      ],
      "min": [
        0.8291040062904358,
        0.24158871173858643
      ],
      "type": "VEC2"
    },
    {
      "bufferView": 0,
      "componentType": 5125,
      "count": 307188,
      "type": "SCALAR"
    },
    {
      "bufferView": 2,
      "byteOffset": 1277928,
      "componentType": 5126,
      "count": 53247,
      "max": [
        10.13802719116211,
        -8.842196464538574,
        7.63247013092041
      ],
      "min": [
        9.522761344909668,
        -12.12341022491455,
        4.334222316741943
      ],
      "type": "VEC3"
    },
    {
      "bufferView": 2,
      "byteOffset": 1916892,
      "componentType": 5126,
      "count": 53247,
      "max": [
        0.999997615814209,
        0.9999918937683105,
        0.9998836517333984
      ],
      "min": [
        -0.999997615814209,
        -0.9999904632568359,
        -0.9998836517333984
      ],
      "type": "VEC3"
    },
    {
      "bufferView": 1,
      "byteOffset": 425976,
      "componentType": 5126,
      "count": 53247,
      "max": [
        0.9883554577827454,
        0.4016669988632202
      ],
      "min": [
        0.8291040062904358,
        0.24158871173858643
      ],
      "type": "VEC2"
    },
    {
      "bufferView": 0,
      "byteOffset": 1228752,
      "componentType": 5125,
      "count": 307188,
      "type": "SCALAR"
    },
    {
      "bufferView": 2,
      "byteOffset": 2555856,
      "componentType": 5126,
      "count": 61522,
      "max": [
        2.893373489379883,
        6.069528579711914,
        9.233858108520508
      ],
      "min": [
        -1.3606364727020264,
        -6.06953239440918,
        7.872666835784912
      ],
      "type": "VEC3"
    },
    {
      "bufferView": 2,
      "byteOffset": 3294120,
      "componentType": 5126,
      "count": 61522,
      "max": [
        0.999997615814209,
        0.9999980926513672,
        1.0
      ],
      "min": [
        -0.999997615814209,
        -0.9999980926513672,
        -1.0
      ],
      "type": "VEC3"
    },
    {
      "bufferView": 1,
      "byteOffset": 851952,
      "componentType": 5126,
      "count": 61522,
      "max": [
        0.9890314340591431,
        0.5767300128936768
      ],
      "min": [
        0.828249990940094,
        0.4159492254257202
      ],
      "type": "VEC2"
    },
    {
      "bufferView": 0,
      "byteOffset": 2457504,
      "componentType": 5125,
      "count": 272604,
      "type": "SCALAR"
    },
    {
      "bufferView": 2,
      "byteOffset": 4032384,
      "componentType": 5126,
      "count": 61414,
      "max": [
        2.893373489379883,
        4.879690647125244,
        9.233858108520508
      ],
      "min": [
        -1.3606364727020264,
        -6.069530963897705,
        7.872664928436279
      ],
      "type": "VEC3"
    },
    {
      "bufferView": 2,
      "byteOffset": 4769352,
      "componentType": 5126,
      "count": 61414,
      "max": [
        0.999997615814209,
        0.9999980926513672,
        1.0
      ],
      "min": [
        -0.999997615814209,
        -0.9999980926513672,
        -1.0
      ],
      "type": "VEC3"
    },
    {
      "bufferView": 1,
      "byteOffset": 1344128,
      "componentType": 5126,
      "count": 61414,
      "max": [
        0.9890314340591431,
        0.5767300128936768
      ],
      "min": [
        0.828249990940094,
        0.4159492254257202
      ],
      "type": "VEC2"
    },
    {
      "bufferView": 0,
      "byteOffset": 3547920,
      "componentType": 5125,
      "count": 272604,
      "type": "SCALAR"
    },
    {
      "bufferView": 2,
      "byteOffset": 5506320,
      "componentType": 5126,
      "count": 62907,
      "max": [
        32.6995849609375,
        12.496112823486328,
        9.233858108520508
      ],
      "min": [
        0.0857735127210617,
        -12.49606990814209,
        3.99141001701355
      ],
      "type": "VEC3"
    },
    {
      "bufferView": 2,
      "byteOffset": 6261204,
      "componentType": 5126,
      "count": 62907,
      "max": [
        0.999997615814209,
        1.0,
        1.0
      ],
      "min": [
        -0.999997615814209,
        -1.0,
        -1.0
      ],
      "type": "VEC3"
    },
    {
      "bufferView": 1,
      "byteOffset": 1835440,
      "componentType": 5126,
      "count": 62907,
      "max": [
        0.9890314340591431,
        0.5767300128936768
      ],
      "min": [
        0.7876790165901184,
        0.010748863220214844
      ],
      "type": "VEC2"
    },
    {
      "bufferView": 0,
      "byteOffset": 4638336,
      "componentType": 5125,
      "count": 291126,
      "type": "SCALAR"
    },
    {
      "bufferView": 2,
      "byteOffset": 7016088,
      "componentType": 5126,
      "count": 64897,
      "max": [
        37.05878829956055,
        32.45652389526367,
        8.522712707519531
      ],
      "min": [
        -34.9667854309082,
        -32.45650100708008,
        -0.11223988234996796
      ],
      "type": "VEC3"
    },
    {
      "bufferView": 2,
      "byteOffset": 7794852,
      "componentType": 5126,
      "count": 64897,
      "max": [
        0.9999982118606567,
        1.0,
        1.0
      ],
      "min": [
        -0.999998927116394,
        -1.0,
        -1.0
      ],
      "type": "VEC3"
    },
    {
      "bufferView": 1,
      "byteOffset": 2338696,
      "componentType": 5126,
      "count": 64897,
      "max": [
        0.9936015605926514,
        0.9879034161567688
      ],
      "min": [
        0.0,
        4.172325134277344e-07
      ],
      "type": "VEC2"
    },
    {
      "bufferView": 0,
      "byteOffset": 5802840,
      "componentType": 5125,
      "count": 239409,
      "type": "SCALAR"
    },
    {
      "bufferView": 2,
      "byteOffset": 8573616,
      "componentType": 5126,
      "count": 49124,
      "max": [
        35.74164962768555,
        29.28519058227539,
        8.768523216247559
      ],
      "min": [
        -36.77383041381836,
        -29.285236358642578,
        -8.226896286010742
      ],
      "type": "VEC3"
    },
    {
      "bufferView": 2,
      "byteOffset": 9163104,
      "componentType": 5126,
      "count": 49124,
      "max": [
        1.0,
        1.0,
        1.0
      ],
      "min": [
        -1.0,
        -1.0,
        -1.0
      ],
      "type": "VEC3"
    },
    {
      "bufferView": 1,
      "byteOffset": 2857872,
      "componentType": 5126,
      "count": 49124,
      "max": [
        0.9936014413833618,
        0.9879977107048035
      ],
      "min": [
        0.001160120009444654,
        0.01271367073059082
      ],
      "type": "VEC2"
    },
    {
      "bufferView": 0,
      "byteOffset": 6760476,
      "componentType": 5125,
      "count": 180822,
      "type": "SCALAR"
    },
    {
      "bufferView": 2,
      "byteOffset": 9752592,
      "componentType": 5126,
      "count": 3578,
      "max": [
        35.7416877746582,
        29.285236358642578,
        6.91383695602417
      ],
      "min": [
        -36.50565719604492,
        -29.285192489624023,
        1.1033265590667725
      ],
      "type": "VEC3"
    },
    {
      "bufferView": 2,
      "byteOffset": 9795528,
      "componentType": 5126,
      "count": 3578,
      "max": [
        0.999998927116394,
        1.0,
        0.9999982118606567
      ],
      "min": [
        -0.9999985694885254,
        -1.0,
        -0.999997615814209
      ],
      "type": "VEC3"
    },
    {
      "bufferView": 0,
      "byteOffset": 7483764,
      "componentType": 5125,
      "count": 10002,
      "type": "SCALAR"
    }
  ],
  "asset": {
    "extras": {
      "author": "Newbie99999993 (https://sketchfab.com/Newbie99999993)",
      "license": "CC-BY-4.0 (http://creativecommons.org/licenses/by/4.0/)",
      "source": "https://sketchfab.com/3d-models/a350-70899867e2e34d8da02c89d0f4f888e9",
      "title": "a350"
    },
    "generator": "Sketchfab-17.8.0",
    "version": "2.0"
  },
  "bufferViews": [
    {
      "buffer": 0,
      "byteLength": 7523772,
      "name": "floatBufferViews",
      "target": 34963
    },
    {
      "buffer": 0,
      "byteLength": 3250864,
      "byteOffset": 7523772,
      "byteStride": 8,
      "name": "floatBufferViews",
      "target": 34962
    },
    {
      "buffer": 0,
      "byteLength": 9838464,
      "byteOffset": 10774636,
      "byteStride": 12,
      "name": "floatBufferViews",
      "target": 34962
    }
  ],
  "buffers": [
    {
      "byteLength": 20613100,
      "uri": "scene.bin"
    }
  ],
  "images": [
    {
      "uri": "textures/Material.014_baseColor.png"
    }
  ],
  "materials": [
    {
      "doubleSided": true,
      "name": "Material.014",
      "pbrMetallicRoughness": {
        "baseColorTexture": {
          "index": 0
        },
        "metallicFactor": 0.0,
        "roughnessFactor": 0.5
      }
    },
    {
      "doubleSided": true,
      "name": "Material.015",
      "pbrMetallicRoughness": {
        "baseColorTexture": {
          "index": 0
        },
        "metallicFactor": 0.0,
        "roughnessFactor": 0.5
      }
    },
    {
      "doubleSided": true,
      "name": "Material.019",
      "pbrMetallicRoughness": {
        "baseColorTexture": {
          "index": 0
        },
        "metallicFactor": 0.0,
        "roughnessFactor": 0.5
      }
    },
    {
      "doubleSided": true,
      "name": "Material.020",
      "pbrMetallicRoughness": {
        "baseColorTexture": {
          "index": 0
        },
        "metallicFactor": 0.0,
        "roughnessFactor": 0.5
      }
    },
    {
      "doubleSided": true,
      "name": "Material.021",
      "pbrMetallicRoughness": {
        "baseColorTexture": {
          "index": 0
        },
        "metallicFactor": 0.0,
        "roughnessFactor": 0.5
      }
    },
    {
      "doubleSided": true,
      "name": "Material.022",
      "pbrMetallicRoughness": {
        "baseColorTexture": {
          "index": 0
        },
        "metallicFactor": 0.0,
        "roughnessFactor": 0.0
      }
    },
    {
      "doubleSided": true,
      "name": "Material.023",
      "pbrMetallicRoughness": {
        "baseColorTexture": {
          "index": 0
        },
        "metallicFactor": 0.0,
        "roughnessFactor": 0.5
      }
    },
    {
      "doubleSided": true,
      "name": "material_0.004",
      "pbrMetallicRoughness": {
        "metallicFactor": 0.0,
        "roughnessFactor": 0.6
      }
    }
  ],
  "meshes": [
    {
      "name": "Object_0",
      "primitives": [
        {
          "attributes": {
            "NORMAL": 1,
            "POSITION": 0,
            "TEXCOORD_0": 2
          },
          "indices": 3,
          "material": 0,
          "mode": 4
        }
      ]
    },
    {
      "name": "Object_1",
      "primitives": [
        {
          "attributes": {
            "NORMAL": 5,
            "POSITION": 4,
            "TEXCOORD_0": 6
          },
          "indices": 7,
          "material": 1,
          "mode": 4
        }
      ]
    },
    {
      "name": "Object_2",
      "primitives": [
        {
          "attributes": {
            "NORMAL": 9,
            "POSITION": 8,
            "TEXCOORD_0": 10
          },
          "indices": 11,
          "material": 2,
          "mode": 4
        }
      ]
    },
    {
      "name": "Object_3",
      "primitives": [
        {
          "attributes": {
            "NORMAL": 13,
            "POSITION": 12,
            "TEXCOORD_0": 14
          },
          "indices": 15,
          "material": 3,
          "mode": 4
        }
      ]
    },
    {
      "name": "Object_4",
      "primitives": [
        {
          "attributes": {
            "NORMAL": 17,
            "POSITION": 16,
            "TEXCOORD_0": 18
          },
          "indices": 19,
          "material": 4,
          "mode": 4
        }
      ]
    },
    {
      "name": "Object_5",
      "primitives": [
        {
          "attributes": {
            "NORMAL": 21,
            "POSITION": 20,
            "TEXCOORD_0": 22
          },
          "indices": 23,
          "material": 5,
          "mode": 4
        }
      ]
    },
    {
      "name": "Object_6",
      "primitives": [
        {
          "attributes": {
            "NORMAL": 25,
            "POSITION": 24,
            "TEXCOORD_0": 26
          },
          "indices": 27,
          "material": 6,
          "mode": 4
        }
      ]
    },
    {
      "name": "Object_7",
      "primitives": [
        {
          "attributes": {
            "NORMAL": 29,
            "POSITION": 28
          },
          "indices": 30,
          "material": 7,
          "mode": 4
        }
      ]
    }
  ],
  "nodes": [
    {
      "children": [
        1
      ],
      "matrix": [
        1.0,
        0.0,
        0.0,
        0.0,
        0.0,
        2.220446049250313e-16,
        -1.0,
        0.0,
        0.0,
        1.0,
        2.220446049250313e-16,
        0.0,
        0.0,
        0.0,
        0.0,
        1.0
      ],
      "name": "Sketchfab_model"
    },
    {
      "children": [
        2
      ],
      "name": "root"
    },
    {
      "children": [
        3
      ],
      "matrix": [
        1.0,
        0.0,
        0.0,
        0.0,
        0.0,
        2.220446049250313e-16,
        1.0,
        0.0,
        0.0,
        -1.0,
        2.220446049250313e-16,
        0.0,
        0.0,
        0.0,
        0.0,
        1.0
      ],
      "name": "GLTF_SceneRootNode"
    },
    {
      "children": [
        4
      ],
      "matrix": [
        1.0,
        0.0,
        -0.0,
        0.0,
        -0.0,
        -3.371747936409264e-07,
        -0.999999999999943,
        0.0,
        0.0,
        0.999999999999943,
        -3.371747936409264e-07,
        0.0,
        0.0,
        0.0,
        0.0,
        1.0
      ],
      "name": "Sketchfab_model_18"
    },
    {
      "children": [
        5
      ],
      "name": "root_17"
    },
    {
      "children": [
        6,
        9,
        12,
        15,
        18,
        21,
        24,
        27
      ],
      "matrix": [
        1.0,
        0.0,
        0.0,
        0.0,
        0.0,
        -3.371747936409264e-07,
        0.999999999999943,
        0.0,
        0.0,
        -0.999999999999943,
        -3.371747936409264e-07,
        0.0,
        0.0,
        0.0,
        0.0,
        1.0
      ],
      "name": "GLTF_SceneRootNode_16"
    },
    {
      "children": [
        7
      ],
      "matrix": [
        1.0,
        0.0,
        0.0,
        0.0,
        0.0,
        -3.371747936409264e-07,
        0.999999999999943,
        0.0,
        0.0,
        -0.999999999999943,
        -3.371747936409264e-07,
        0.0,
        0.0,
        0.0,
        0.0,
        1.0
      ],
      "name": "model_0_0_1"
    },
    {
      "children": [
        8
      ],
      "name": "Object_4_0"
    },
    {
      "mesh": 0,
      "name": "Object_8"
    },
    {
      "children": [
        10
      ],
      "matrix": [
        1.0,
        0.0,
        0.0,
        0.0,
        0.0,
        -3.371747936409264e-07,
        0.999999999999943,
        0.0,
        0.0,
        -0.999999999999943,
        -3.371747936409264e-07,
        0.0,
        0.0,
        0.0,
        0.0,
        1.0
      ],
      "name": "model_1_1_3"
    },
    {
      "children": [
        11
      ],
      "name": "Object_6_2"
    },
    {
      "mesh": 1,
      "name": "Object_11"
    },
    {
      "children": [
        13
      ],
      "matrix": [
        1.0,
        0.0,
        0.0,
        0.0,
        0.0,
        -3.371747936409264e-07,
        0.999999999999943,
        0.0,
        0.0,
        -0.999999999999943,
        -3.371747936409264e-07,
        0.0,
        0.0,
        0.0,
        0.0,
        1.0
      ],
      "name": "model_2_2_5"
    },
    {
      "children": [
        14
      ],
      "name": "Object_8_4"
    },
    {
      "mesh": 2,
      "name": "Object_14"
    },
    {
      "children": [
        16
      ],
      "matrix": [
        1.0,
        0.0,
        0.0,
        0.0,
        0.0,
        -3.371747936409264e-07,
        0.999999999999943,
        0.0,
        0.0,
        -0.999999999999943,
        -3.371747936409264e-07,
        0.0,
        0.0,
        0.0,
        0.0,
        1.0
      ],
      "name": "model_3_3_7"
    },
    {
      "children": [
        17
      ],
      "name": "Object_10_6"
    },
    {
      "mesh": 3,
      "name": "Object_17"
    },
    {
      "children": [
        19
      ],
      "matrix": [
        1.0,
        0.0,
        0.0,
        0.0,
        0.0,
        -3.371747936409264e-07,
        0.999999999999943,
        0.0,
        0.0,
        -0.999999999999943,
        -3.371747936409264e-07,
        0.0,
        0.0,
        0.0,
        0.0,
        1.0
      ],
      "name": "model_4_4_9"
    },
    {
      "children": [
        20
      ],
      "name": "Object_12_8"
    },
    {
      "mesh": 4,
      "name": "Object_20"
    },
    {
      "children": [
        22
      ],
      "matrix": [
        1.0,
        0.0,
        0.0,
        0.0,
        0.0,
        -3.371747936409264e-07,
        0.999999999999943,
        0.0,
        0.0,
        -0.999999999999943,
        -3.371747936409264e-07,
        0.0,
        0.0,
        0.0,
        0.0,
        1.0
      ],
      "name": "model_5_5_11"
    },
    {
      "children": [
        23
      ],
      "name": "Object_14_10"
    },
    {
      "mesh": 5,
      "name": "Object_23"
    },
    {
      "children": [
        25
      ],
      "matrix": [
        1.0,
        0.0,
        0.0,
        0.0,
        0.0,
        -3.371747936409264e-07,
        0.999999999999943,
        0.0,
        0.0,
        -0.999999999999943,
        -3.371747936409264e-07,
        0.0,
        0.0,
        0.0,
        0.0,
        1.0
      ],
      "name": "model_6_6_13"
    },
    {
      "children": [
        26
      ],
      "name": "Object_16_12"
    },
    {
      "mesh": 6,
      "name": "Object_26"
    },
    {
      "children": [
        28
      ],
      "matrix": [
        1.0,
        0.0,
        0.0,
        0.0,
        0.0,
        -3.371747936409264e-07,
        0.999999999999943,
        0.0,
        0.0,
        -0.999999999999943,
        -3.371747936409264e-07,
        0.0,
        0.0,
        0.0,
        0.0,
        1.0
      ],
      "name": "model_7_7_15"
    },
    {
      "children": [
        29
      ],
      "name": "Object_18_14"
    },
    {
      "mesh": 7,
      "name": "Object_29"
    }
  ],
  "samplers": [
    {
      "magFilter": 9729,
      "minFilter": 9987,
      "wrapS": 10497,
      "wrapT": 10497
    }
  ],
  "scene": 0,
  "scenes": [
    {
      "name": "Sketchfab_Scene",
      "nodes": [
        0
      ]
    }
  ],
  "textures": [
    {
      "sampler": 0,
      "source": 0
    }
  ]
}
